<?xml version="1.0" encoding="UTF-8" standalone="no"?>
<!DOCTYPE svg PUBLIC "-//W3C//DTD SVG 1.1//EN" "http://www.w3.org/Graphics/SVG/1.1/DTD/svg11.dtd">
<svg width="100%" height="100%" viewBox="0 0 871 376" version="1.1" xmlns="http://www.w3.org/2000/svg" xmlns:xlink="http://www.w3.org/1999/xlink" xml:space="preserve" xmlns:serif="http://www.serif.com/" style="fill-rule:evenodd;clip-rule:evenodd;stroke-linecap:round;stroke-linejoin:round;stroke-miterlimit:1.5;">
    <g transform="matrix(1,0,0,1,-918.34,-483.434)">
        <g transform="matrix(6.74551,0,0,6.74551,-1743,-4428.22)">
            <g>
                <g transform="matrix(1,0,0,1,-142.139,-32.5809)">
                    <path d="M558.824,802.016C558.291,802.016 557.866,801.924 557.549,801.741C557.232,801.557 556.991,801.316 556.824,801.016C556.657,800.716 556.541,800.357 556.474,799.941C556.407,799.524 556.357,799.082 556.324,798.616C555.491,799.649 554.416,800.516 553.099,801.216C551.782,801.916 550.107,802.266 548.074,802.266C546.774,802.266 545.449,802.074 544.099,801.691C542.749,801.307 541.524,800.641 540.424,799.691C539.324,798.741 538.424,797.466 537.724,795.866C537.024,794.266 536.674,792.249 536.674,789.816C536.674,787.916 536.907,786.132 537.374,784.466C537.841,782.799 538.549,781.341 539.499,780.091C540.449,778.841 541.641,777.849 543.074,777.116C544.507,776.382 546.191,776.016 548.124,776.016C549.824,776.016 551.341,776.324 552.674,776.941C554.007,777.557 555.207,778.566 556.274,779.966C556.274,779.566 556.291,779.157 556.324,778.741C556.357,778.324 556.449,777.941 556.599,777.591C556.749,777.241 556.991,776.957 557.324,776.741C557.657,776.524 558.107,776.416 558.674,776.416C559.174,776.416 559.641,776.616 560.074,777.016C560.507,777.416 560.757,778.282 560.824,779.616C560.924,781.382 560.999,782.966 561.049,784.366C561.099,785.766 561.124,787.216 561.124,788.716C561.124,790.549 561.107,792.232 561.074,793.766C561.041,795.299 560.957,796.932 560.824,798.666C560.757,799.432 560.666,800.041 560.549,800.491C560.432,800.941 560.291,801.274 560.124,801.491C559.957,801.707 559.757,801.849 559.524,801.916C559.291,801.982 559.057,802.016 558.824,802.016ZM556.124,789.316C556.124,787.582 555.866,786.166 555.349,785.066C554.832,783.966 554.182,783.107 553.399,782.491C552.616,781.874 551.774,781.449 550.874,781.216C549.974,780.982 549.141,780.866 548.374,780.866C547.174,780.866 546.149,781.082 545.299,781.516C544.449,781.949 543.757,782.541 543.224,783.291C542.691,784.041 542.299,784.924 542.049,785.941C541.799,786.957 541.674,788.066 541.674,789.266C541.674,792.199 542.316,794.366 543.599,795.766C544.882,797.166 546.624,797.866 548.824,797.866C550.124,797.866 551.232,797.641 552.149,797.191C553.066,796.741 553.816,796.132 554.399,795.366C554.982,794.599 555.416,793.691 555.699,792.641C555.982,791.591 556.124,790.482 556.124,789.316Z" style="fill-rule:nonzero;"/>
                </g>
                <g transform="matrix(1,0,0,1,-142.139,-32.5809)">
                    <path d="M564.824,798.716C564.757,797.482 564.699,796.074 564.649,794.491C564.599,792.907 564.574,791.166 564.574,789.266C564.574,786.899 564.591,784.874 564.624,783.191C564.657,781.507 564.749,780.124 564.899,779.041C565.049,777.957 565.291,777.157 565.624,776.641C565.957,776.124 566.424,775.866 567.024,775.866C567.591,775.866 568.091,776.066 568.524,776.466C568.957,776.866 569.207,777.732 569.274,779.066C569.474,782.566 569.574,785.949 569.574,789.216C569.574,790.882 569.541,792.441 569.474,793.891C569.407,795.341 569.341,796.932 569.274,798.666C569.241,799.466 569.166,800.082 569.049,800.516C568.932,800.949 568.774,801.282 568.574,801.516C568.374,801.749 568.149,801.891 567.899,801.941C567.649,801.991 567.357,802.016 567.024,802.016C566.424,802.016 565.924,801.807 565.524,801.391C565.124,800.974 564.891,800.082 564.824,798.716ZM567.074,766.816C567.841,766.816 568.549,767.116 569.199,767.716C569.849,768.316 570.174,769.032 570.174,769.866C570.174,770.666 569.841,771.357 569.174,771.941C568.507,772.524 567.757,772.816 566.924,772.816C566.224,772.816 565.566,772.524 564.949,771.941C564.332,771.357 564.024,770.632 564.024,769.766C564.024,768.966 564.332,768.274 564.949,767.691C565.566,767.107 566.274,766.816 567.074,766.816Z" style="fill-rule:nonzero;"/>
                </g>
                <g transform="matrix(1,0,0,1,-142.139,-32.5809)">
                    <path d="M573.524,798.766C573.391,797.599 573.307,796.182 573.274,794.516C573.241,792.849 573.224,790.832 573.224,788.466C573.224,786.132 573.232,784.249 573.249,782.816C573.266,781.382 573.357,780.116 573.524,779.016C573.691,777.649 573.949,776.766 574.299,776.366C574.649,775.966 575.107,775.766 575.674,775.766C576.074,775.766 576.432,775.799 576.749,775.866C577.066,775.932 577.349,776.074 577.599,776.291C577.849,776.507 578.041,776.816 578.174,777.216C578.307,777.616 578.374,778.166 578.374,778.866C578.374,778.999 578.391,779.132 578.424,779.266C578.424,779.399 578.432,779.541 578.449,779.691C578.466,779.841 578.474,780.016 578.474,780.216C579.374,779.082 580.399,778.116 581.549,777.316C582.699,776.516 584.007,776.116 585.474,776.116C587.441,776.116 588.424,776.932 588.424,778.566C588.424,779.166 588.299,779.666 588.049,780.066C587.799,780.466 587.449,780.791 586.999,781.041C586.549,781.291 586.032,781.482 585.449,781.616C584.866,781.749 584.224,781.882 583.524,782.016C582.457,782.216 581.457,782.591 580.524,783.141C579.591,783.691 578.957,784.382 578.624,785.216C578.624,785.849 578.632,786.316 578.649,786.616C578.666,786.916 578.682,787.166 578.699,787.366C578.716,787.566 578.724,787.782 578.724,788.016L578.724,789.116C578.724,790.816 578.691,792.407 578.624,793.891C578.557,795.374 578.491,796.982 578.424,798.716C578.391,799.516 578.299,800.132 578.149,800.566C577.999,800.999 577.816,801.332 577.599,801.566C577.382,801.799 577.141,801.941 576.874,801.991C576.607,802.041 576.341,802.066 576.074,802.066C575.141,802.066 574.516,801.857 574.199,801.441C573.882,801.024 573.657,800.132 573.524,798.766Z" style="fill-rule:nonzero;"/>
                </g>
                <g transform="matrix(1,0,0,1,-142.139,-32.5809)">
                    <path d="M609.724,801.716C609.057,801.716 608.499,801.449 608.049,800.916C607.599,800.382 607.291,799.766 607.124,799.066C606.724,799.432 606.266,799.799 605.749,800.166C605.232,800.532 604.641,800.874 603.974,801.191C603.307,801.507 602.574,801.766 601.774,801.966C600.974,802.166 600.107,802.266 599.174,802.266C598.041,802.266 596.782,802.074 595.399,801.691C594.016,801.307 592.716,800.641 591.499,799.691C590.282,798.741 589.266,797.449 588.449,795.816C587.632,794.182 587.224,792.132 587.224,789.666C587.224,787.566 587.541,785.699 588.174,784.066C588.807,782.432 589.699,781.057 590.849,779.941C591.999,778.824 593.366,777.974 594.949,777.391C596.532,776.807 598.257,776.516 600.124,776.516C601.724,776.516 602.991,776.699 603.924,777.066C604.857,777.432 605.591,777.866 606.124,778.366L606.124,775.291C606.124,774.141 606.132,773.024 606.149,771.941C606.166,770.857 606.182,769.866 606.199,768.966C606.216,768.066 606.241,767.382 606.274,766.916C606.341,765.782 606.541,765.007 606.874,764.591C607.207,764.174 607.791,763.966 608.624,763.966C609.491,763.966 610.082,764.174 610.399,764.591C610.716,765.007 610.907,765.732 610.974,766.766C611.007,767.199 611.032,767.782 611.049,768.516C611.066,769.249 611.074,770.049 611.074,770.916C611.074,771.782 611.082,772.657 611.099,773.541C611.116,774.424 611.124,775.224 611.124,775.941L611.124,778.416C611.124,781.816 611.099,784.949 611.049,787.816C610.999,790.682 610.974,792.966 610.974,794.666C611.041,795.032 611.182,795.382 611.399,795.716C611.616,796.049 611.849,796.382 612.099,796.716C612.349,797.049 612.574,797.399 612.774,797.766C612.974,798.132 613.074,798.516 613.074,798.916C613.074,799.382 612.957,799.791 612.724,800.141C612.491,800.491 612.199,800.782 611.849,801.016C611.499,801.249 611.132,801.424 610.749,801.541C610.366,801.657 610.024,801.716 609.724,801.716ZM600.074,797.316C602.141,797.316 603.724,796.699 604.824,795.466C605.924,794.232 606.474,792.199 606.474,789.366C606.474,783.932 604.324,781.216 600.024,781.216C599.024,781.216 598.057,781.366 597.124,781.666C596.191,781.966 595.366,782.432 594.649,783.066C593.932,783.699 593.349,784.499 592.899,785.466C592.449,786.432 592.224,787.582 592.224,788.916C592.224,790.016 592.382,791.066 592.699,792.066C593.016,793.066 593.499,793.957 594.149,794.741C594.799,795.524 595.616,796.149 596.599,796.616C597.582,797.082 598.741,797.316 600.074,797.316Z" style="fill-rule:nonzero;"/>
                </g>
                <g transform="matrix(1,0,0,1,-142.139,-32.5809)">
                    <path d="M635.074,802.016C634.541,802.016 634.116,801.924 633.799,801.741C633.482,801.557 633.241,801.316 633.074,801.016C632.907,800.716 632.791,800.357 632.724,799.941C632.657,799.524 632.607,799.082 632.574,798.616C631.741,799.649 630.666,800.516 629.349,801.216C628.032,801.916 626.357,802.266 624.324,802.266C623.024,802.266 621.699,802.074 620.349,801.691C618.999,801.307 617.774,800.641 616.674,799.691C615.574,798.741 614.674,797.466 613.974,795.866C613.274,794.266 612.924,792.249 612.924,789.816C612.924,787.916 613.157,786.132 613.624,784.466C614.091,782.799 614.799,781.341 615.749,780.091C616.699,778.841 617.891,777.849 619.324,777.116C620.757,776.382 622.441,776.016 624.374,776.016C626.074,776.016 627.591,776.324 628.924,776.941C630.257,777.557 631.457,778.566 632.524,779.966C632.524,779.566 632.541,779.157 632.574,778.741C632.607,778.324 632.699,777.941 632.849,777.591C632.999,777.241 633.241,776.957 633.574,776.741C633.907,776.524 634.357,776.416 634.924,776.416C635.424,776.416 635.891,776.616 636.324,777.016C636.757,777.416 637.007,778.282 637.074,779.616C637.174,781.382 637.249,782.966 637.299,784.366C637.349,785.766 637.374,787.216 637.374,788.716C637.374,790.549 637.357,792.232 637.324,793.766C637.291,795.299 637.207,796.932 637.074,798.666C637.007,799.432 636.916,800.041 636.799,800.491C636.682,800.941 636.541,801.274 636.374,801.491C636.207,801.707 636.007,801.849 635.774,801.916C635.541,801.982 635.307,802.016 635.074,802.016ZM632.374,789.316C632.374,787.582 632.116,786.166 631.599,785.066C631.082,783.966 630.432,783.107 629.649,782.491C628.866,781.874 628.024,781.449 627.124,781.216C626.224,780.982 625.391,780.866 624.624,780.866C623.424,780.866 622.399,781.082 621.549,781.516C620.699,781.949 620.007,782.541 619.474,783.291C618.941,784.041 618.549,784.924 618.299,785.941C618.049,786.957 617.924,788.066 617.924,789.266C617.924,792.199 618.566,794.366 619.849,795.766C621.132,797.166 622.874,797.866 625.074,797.866C626.374,797.866 627.482,797.641 628.399,797.191C629.316,796.741 630.066,796.132 630.649,795.366C631.232,794.599 631.666,793.691 631.949,792.641C632.232,791.591 632.374,790.482 632.374,789.316Z" style="fill-rule:nonzero;"/>
                </g>
                <g transform="matrix(1,0,0,1,-142.139,-32.5809)">
                    <path d="M646.174,809.016C646.174,809.649 646.157,810.257 646.124,810.841C646.091,811.424 645.982,811.949 645.799,812.416C645.616,812.882 645.349,813.257 644.999,813.541C644.649,813.824 644.157,813.966 643.524,813.966C642.791,813.966 642.182,813.707 641.699,813.191C641.216,812.674 640.941,811.766 640.874,810.466C640.841,809.632 640.791,808.616 640.724,807.416C640.657,806.216 640.599,804.949 640.549,803.616C640.499,802.282 640.449,800.949 640.399,799.616C640.349,798.282 640.324,797.049 640.324,795.916C640.324,792.016 640.599,788.799 641.149,786.266C641.699,783.732 642.524,781.716 643.624,780.216C644.724,778.716 646.082,777.666 647.699,777.066C649.316,776.466 651.191,776.166 653.324,776.166C655.024,776.166 656.624,776.424 658.124,776.941C659.624,777.457 660.932,778.257 662.049,779.341C663.166,780.424 664.057,781.824 664.724,783.541C665.391,785.257 665.724,787.316 665.724,789.716C665.724,791.716 665.382,793.482 664.699,795.016C664.016,796.549 663.074,797.841 661.874,798.891C660.674,799.941 659.266,800.741 657.649,801.291C656.032,801.841 654.307,802.116 652.474,802.116C650.907,802.116 649.499,801.791 648.249,801.141C646.999,800.491 646.107,799.782 645.574,799.016C645.741,800.882 645.882,802.616 645.999,804.216C646.116,805.816 646.174,807.416 646.174,809.016ZM653.074,781.166C651.907,781.166 650.899,781.366 650.049,781.766C649.199,782.166 648.507,782.716 647.974,783.416C647.441,784.116 647.049,784.949 646.799,785.916C646.549,786.882 646.424,787.932 646.424,789.066C646.424,790.166 646.532,791.207 646.749,792.191C646.966,793.174 647.324,794.032 647.824,794.766C648.324,795.499 648.991,796.082 649.824,796.516C650.657,796.949 651.674,797.166 652.874,797.166C653.807,797.166 654.707,797.041 655.574,796.791C656.441,796.541 657.216,796.116 657.899,795.516C658.582,794.916 659.132,794.116 659.549,793.116C659.966,792.116 660.174,790.866 660.174,789.366C660.174,787.832 659.966,786.541 659.549,785.491C659.132,784.441 658.582,783.591 657.899,782.941C657.216,782.291 656.449,781.832 655.599,781.566C654.749,781.299 653.907,781.166 653.074,781.166Z" style="fill-rule:nonzero;"/>
                </g>
                <g transform="matrix(0.147298,0.0167475,-0.0167475,0.147298,123.368,583.835)">
                    <path d="M2368.11,772.088C2357.03,756.26 2393.43,707.195 2414.8,705.612C2436.17,704.029 2476.53,749.138 2465.45,757.843C2454.37,766.548 2429.04,736.476 2417.96,736.476C2406.89,736.476 2379.19,787.916 2368.11,772.088Z" style="stroke:black;stroke-width:1px;"/>
                </g>
                <g transform="matrix(-0.147207,-0.0175237,0.0175237,-0.147207,844.406,929.953)">
                    <path d="M2368.11,772.088C2357.03,756.26 2393.43,707.195 2414.8,705.612C2436.17,704.029 2476.53,749.138 2465.45,757.843C2454.37,766.548 2429.04,736.476 2417.96,736.476C2406.89,736.476 2379.19,787.916 2368.11,772.088Z" style="stroke:black;stroke-width:1px;"/>
                </g>
            </g>
        </g>
    </g>
</svg>
